<svg width="18" height="18" viewBox="0 0 18 18" fill="none" xmlns="http://www.w3.org/2000/svg">
<g id="Discovery">
<path id="Discovery_2" fill-rule="evenodd" clip-rule="evenodd" d="M9.00008 0.666656C4.39771 0.666656 0.666748 4.39762 0.666748 8.99999C0.666748 13.6024 4.39771 17.3333 9.00008 17.3333C13.6025 17.3333 17.3334 13.6024 17.3334 8.99999C17.3334 4.39762 13.6025 0.666656 9.00008 0.666656ZM9.00013 1.8731C12.9362 1.8731 16.127 5.06391 16.127 8.99998C16.127 12.9361 12.9362 16.1269 9.00013 16.1269C5.06407 16.1269 1.87325 12.9361 1.87325 8.99998C1.87325 5.06391 5.06407 1.8731 9.00013 1.8731ZM11.5071 5.73714L7.41386 7.01813C7.22516 7.07718 7.07738 7.22496 7.01833 7.41366L5.73734 11.5069C5.59193 11.9716 6.02853 12.4082 6.4932 12.2628L10.5865 10.9818C10.7752 10.9227 10.9229 10.775 10.982 10.5863L12.263 6.49299C12.4084 6.02833 11.9718 5.59172 11.5071 5.73714ZM10.7673 7.23208L9.92437 9.92407L7.23238 10.767L8.07529 8.07498L10.7673 7.23208Z" fill="#777E90"/>
</g>
</svg>
