<svg width="20" height="18" viewBox="0 0 20 18" fill="none" xmlns="http://www.w3.org/2000/svg">
<path id="Vector" d="M1 7.5H19M18 13.5V8.17908C18 7.92555 18.0001 7.79884 17.9844 7.67419C17.9704 7.56348 17.947 7.45404 17.9148 7.34719C17.8786 7.22691 17.827 7.11115 17.724 6.87948L16.1777 3.40039C15.872 2.71253 15.7192 2.36852 15.4775 2.11633C15.264 1.89341 15.0021 1.723 14.7116 1.61837C14.383 1.5 14.0063 1.5 13.2536 1.5H6.74609C5.99336 1.5 5.61716 1.5 5.28857 1.61837C4.99813 1.723 4.73604 1.89341 4.52246 2.11633C4.28084 2.36852 4.12785 2.71253 3.82214 3.40039L2.27588 6.87948C2.17291 7.11115 2.12122 7.22691 2.08496 7.34719C2.05276 7.45404 2.02969 7.56348 2.01572 7.67419C2 7.79884 2 7.92555 2 8.17908V13.5M18 13.5L2 13.5M18 13.5V14.5C18 15.6046 17.1046 16.5 16 16.5C14.8954 16.5 14 15.6046 14 14.5V13.5M2 13.5V14.5C2 15.6046 2.89543 16.5 4 16.5C5.10457 16.5 6 15.6046 6 14.5V13.5" stroke="#777E90" stroke-width="1.3" stroke-linecap="round" stroke-linejoin="round"/>
</svg>
