<svg width="18" height="19" viewBox="0 0 18 19" fill="none" xmlns="http://www.w3.org/2000/svg">
<g id="u:eye">
<path id="Vector" d="M16.3525 9.21409C14.9082 5.86074 12.1912 3.78009 9.25973 3.78009C6.32823 3.78009 3.61123 5.86074 2.16693 9.21409C2.12756 9.3043 2.10724 9.40166 2.10724 9.50009C2.10724 9.59852 2.12756 9.69588 2.16693 9.78609C3.61123 13.1394 6.32823 15.2201 9.25973 15.2201C12.1912 15.2201 14.9082 13.1394 16.3525 9.78609C16.3919 9.69588 16.4122 9.59852 16.4122 9.50009C16.4122 9.40166 16.3919 9.3043 16.3525 9.21409ZM9.25973 13.7901C6.99318 13.7901 4.84818 12.1527 3.61123 9.50009C4.84818 6.84744 6.99318 5.21009 9.25973 5.21009C11.5263 5.21009 13.6713 6.84744 14.9082 9.50009C13.6713 12.1527 11.5263 13.7901 9.25973 13.7901ZM9.25973 6.64009C8.69408 6.64009 8.14112 6.80783 7.6708 7.12209C7.20048 7.43635 6.8339 7.88302 6.61743 8.40562C6.40097 8.92821 6.34433 9.50326 6.45468 10.058C6.56504 10.6128 6.83743 11.1224 7.2374 11.5224C7.63738 11.9224 8.14699 12.1948 8.70177 12.3051C9.25656 12.4155 9.83161 12.3589 10.3542 12.1424C10.8768 11.9259 11.3235 11.5593 11.6377 11.089C11.952 10.6187 12.1197 10.0657 12.1197 9.50009C12.1197 8.74157 11.8184 8.01412 11.2821 7.47776C10.7457 6.94141 10.0182 6.64009 9.25973 6.64009ZM9.25973 10.9301C8.9769 10.9301 8.70043 10.8462 8.46527 10.6891C8.2301 10.532 8.04682 10.3086 7.93858 10.0473C7.83035 9.78603 7.80203 9.4985 7.85721 9.22111C7.91238 8.94372 8.04858 8.68892 8.24857 8.48893C8.44856 8.28894 8.70336 8.15274 8.98075 8.09757C9.25814 8.04239 9.54567 8.07071 9.80697 8.17894C10.0683 8.28718 10.2916 8.47046 10.4487 8.70563C10.6059 8.94079 10.6897 9.21726 10.6897 9.50009C10.6897 9.87935 10.5391 10.2431 10.2709 10.5113C10.0027 10.7794 9.63899 10.9301 9.25973 10.9301Z" fill="#777E90"/>
</g>
</svg>
