<svg width="18" height="18" viewBox="0 0 18 18" fill="none" xmlns="http://www.w3.org/2000/svg">
<g id="Category">
<path id="Category_2" fill-rule="evenodd" clip-rule="evenodd" d="M5.67798 0.666668H3.14653C1.77582 0.666668 0.666748 1.78537 0.666748 3.16293V5.71636C0.666748 7.09336 1.77606 8.21263 3.14653 8.21263H5.67798C7.04845 8.21263 8.15777 7.09336 8.15777 5.71636V3.16293C8.15777 1.78537 7.04869 0.666668 5.67798 0.666668ZM3.14653 1.82946H5.67798C6.40424 1.82946 6.99497 2.42532 6.99497 3.16293V5.71636C6.99497 6.45348 6.40392 7.04983 5.67798 7.04983H3.14653C2.42059 7.04983 1.82954 6.45348 1.82954 5.71636V3.16293C1.82954 2.42532 2.42028 1.82946 3.14653 1.82946ZM14.8544 0.666668H12.3222C10.9515 0.666668 9.8424 1.78537 9.8424 3.16293V5.71636C9.8424 7.09336 10.9517 8.21263 12.3222 8.21263H14.8544C16.2243 8.21263 17.3334 7.0932 17.3334 5.71636V3.16293C17.3334 1.78553 16.2245 0.666668 14.8544 0.666668ZM12.3222 1.82946H14.8544C15.58 1.82946 16.1706 2.42541 16.1706 3.16293V5.71636C16.1706 6.4534 15.5797 7.04983 14.8544 7.04983H12.3222C11.5962 7.04983 11.0052 6.45348 11.0052 5.71636V3.16293C11.0052 2.42532 11.5959 1.82946 12.3222 1.82946ZM3.14653 9.78738H5.67798C7.04885 9.78738 8.15777 10.9062 8.15777 12.2844V14.8371C8.15777 16.2146 7.04869 17.3333 5.67798 17.3333H3.14653C1.77582 17.3333 0.666748 16.2146 0.666748 14.8371V12.2844C0.666748 10.9062 1.77566 9.78738 3.14653 9.78738ZM5.67798 10.9502H3.14653C2.42019 10.9502 1.82954 11.5461 1.82954 12.2844V14.8371C1.82954 15.5747 2.42028 16.1705 3.14653 16.1705H5.67798C6.40424 16.1705 6.99497 15.5747 6.99497 14.8371V12.2844C6.99497 11.5461 6.40432 10.9502 5.67798 10.9502ZM14.8544 9.78738H12.3222C10.9513 9.78738 9.8424 10.9062 9.8424 12.2844V14.8371C9.8424 16.2146 10.9515 17.3333 12.3222 17.3333H14.8544C16.2245 17.3333 17.3334 16.2145 17.3334 14.8371V12.2844C17.3334 10.9064 16.2247 9.78738 14.8544 9.78738ZM12.3222 10.9502H14.8544C15.5801 10.9502 16.1706 11.5462 16.1706 12.2844V14.8371C16.1706 15.5746 15.58 16.1705 14.8544 16.1705H12.3222C11.5959 16.1705 11.0052 15.5747 11.0052 14.8371V12.2844C11.0052 11.5461 11.5958 10.9502 12.3222 10.9502Z" fill="#777E90"/>
</g>
</svg>
