<svg width="18" height="18" viewBox="0 0 18 18" fill="none" xmlns="http://www.w3.org/2000/svg">
<g id="Activity">
<path id="Activity_2" fill-rule="evenodd" clip-rule="evenodd" d="M13.0177 2.81781C13.0177 1.62977 13.9838 0.666667 15.1755 0.666667C16.3673 0.666667 17.3334 1.62977 17.3334 2.81781C17.3334 4.00586 16.3673 4.96896 15.1755 4.96896C13.9838 4.96896 13.0177 4.00586 13.0177 2.81781ZM16.1221 2.81781C16.1221 2.29666 15.6984 1.87418 15.1756 1.87418C14.6528 1.87418 14.229 2.29666 14.229 2.81781C14.229 3.33896 14.6528 3.76144 15.1756 3.76144C15.6984 3.76144 16.1221 3.33896 16.1221 2.81781ZM11.9399 6.95019C12.1447 6.6866 12.5251 6.63849 12.7895 6.84272C13.0299 7.02838 13.0917 7.35868 12.947 7.61523L12.8973 7.68977L10.5321 10.733C10.345 10.9737 10.0116 11.0345 9.75403 10.8881L9.67924 10.838L7.40297 9.05566L5.35938 11.704C5.17396 11.9442 4.84284 12.0069 4.585 11.8635L4.51007 11.8143C4.26907 11.6295 4.20621 11.2994 4.35002 11.0424L4.39939 10.9676L6.81637 7.83603C7.00312 7.59407 7.33728 7.53248 7.59552 7.67914L7.67049 7.72941L9.94743 9.5129L11.9399 6.95019ZM11.6864 1.94833C11.6864 1.61489 11.4152 1.34458 11.0808 1.34458H5.21199L5.02285 1.34773C2.39609 1.4357 0.666748 3.35886 0.666748 6.08944V12.5958L0.669645 12.7901C0.750604 15.4898 2.5225 17.3333 5.21199 17.3333H12.1599L12.3491 17.3302C14.9768 17.2425 16.7051 15.3251 16.7051 12.5958V6.92945L16.6996 6.84753C16.6595 6.55283 16.4061 6.32569 16.0995 6.32569C15.765 6.32569 15.4939 6.59601 15.4939 6.92945V12.5958L15.4905 12.7832C15.4173 14.8224 14.1438 16.1258 12.1599 16.1258H5.21199L5.03208 16.1223C3.07594 16.0445 1.87801 14.6909 1.87801 12.5958V6.08944L1.88135 5.90187C1.95465 3.86065 3.2298 2.55209 5.21199 2.55209H11.0808L11.1629 2.54658C11.4585 2.5066 11.6864 2.25399 11.6864 1.94833Z" fill="#777E90"/>
</g>
</svg>
