<svg width="20" height="20" viewBox="0 0 20 20" fill="none" xmlns="http://www.w3.org/2000/svg">
<g id="User / Users">
<path id="Vector" d="M17.5 16.6666C17.5 15.2153 16.1087 13.9806 14.1667 13.523M12.5 16.6667C12.5 14.8257 10.2614 13.3333 7.5 13.3333C4.73858 13.3333 2.5 14.8257 2.5 16.6667M12.5 10.8333C14.3409 10.8333 15.8333 9.34095 15.8333 7.50001C15.8333 5.65906 14.3409 4.16667 12.5 4.16667M7.5 10.8333C5.65905 10.8333 4.16667 9.34095 4.16667 7.50001C4.16667 5.65906 5.65905 4.16667 7.5 4.16667C9.34095 4.16667 10.8333 5.65906 10.8333 7.50001C10.8333 9.34095 9.34095 10.8333 7.5 10.8333Z" stroke="#7EB2FF" stroke-linecap="round" stroke-linejoin="round"/>
</g>
</svg>
