<svg width="16" height="16" viewBox="0 0 16 16" fill="none" xmlns="http://www.w3.org/2000/svg">
<g id="u:search">
<path id="Vector" d="M14.4733 13.5261L11.9999 11.0728C12.96 9.87572 13.4249 8.35631 13.2991 6.82698C13.1733 5.29765 12.4664 3.87464 11.3236 2.85054C10.1808 1.82645 8.68914 1.27912 7.15522 1.32109C5.62129 1.36307 4.16175 1.99116 3.0767 3.07621C1.99164 4.16126 1.36356 5.62081 1.32158 7.15473C1.27961 8.68865 1.82694 10.1804 2.85103 11.3231C3.87512 12.4659 5.29814 13.1729 6.82747 13.2987C8.3568 13.4244 9.87621 12.9595 11.0733 11.9994L13.5266 14.4528C13.5886 14.5153 13.6623 14.5649 13.7436 14.5987C13.8248 14.6326 13.9119 14.65 13.9999 14.65C14.0879 14.65 14.1751 14.6326 14.2563 14.5987C14.3376 14.5649 14.4113 14.5153 14.4733 14.4528C14.5934 14.3285 14.6606 14.1623 14.6606 13.9894C14.6606 13.8166 14.5934 13.6504 14.4733 13.5261ZM7.33327 11.9994C6.41029 11.9994 5.50804 11.7258 4.74061 11.213C3.97318 10.7002 3.37504 9.97136 3.02183 9.11864C2.66862 8.26592 2.57621 7.3276 2.75627 6.42236C2.93634 5.51712 3.38079 4.68559 4.03344 4.03295C4.68608 3.3803 5.5176 2.93585 6.42285 2.75578C7.32809 2.57572 8.2664 2.66813 9.11913 3.02134C9.97185 3.37455 10.7007 3.97269 11.2135 4.74012C11.7262 5.50755 11.9999 6.4098 11.9999 7.33278C11.9999 8.57046 11.5083 9.75744 10.6331 10.6326C9.75793 11.5078 8.57095 11.9994 7.33327 11.9994Z" fill="#777E90"/>
</g>
</svg>
