<svg width="20" height="15" viewBox="0 0 20 15" fill="none" xmlns="http://www.w3.org/2000/svg">
<g id="3 User">
<path id="3 User_2" fill-rule="evenodd" clip-rule="evenodd" d="M9.9481 0.864594C7.81848 0.864594 6.10789 2.57518 6.10789 4.7048C6.10789 6.83505 7.81834 8.54577 9.9481 8.54577C12.0779 8.54577 13.7883 6.83505 13.7883 4.7048C13.7883 2.57518 12.0777 0.864594 9.9481 0.864594ZM9.94806 2.11461C11.3873 2.11461 12.5383 3.26556 12.5383 4.70482C12.5383 6.14476 11.3874 7.29579 9.94806 7.29579C8.5087 7.29579 7.35785 6.14476 7.35785 4.70482C7.35785 3.26556 8.50879 2.11461 9.94806 2.11461ZM5.24165 1.64951C5.58683 1.64951 5.86665 1.92933 5.86665 2.27451C5.86665 2.61968 5.58683 2.89951 5.24165 2.89951C4.25135 2.89951 3.44818 3.70232 3.44818 4.69221C3.44818 5.68211 4.25135 6.48492 5.24165 6.48492C5.58683 6.48492 5.86665 6.76474 5.86665 7.10992C5.86665 7.4551 5.58683 7.73492 5.24165 7.73492C3.56111 7.73492 2.19818 6.37258 2.19818 4.69221C2.19818 3.01184 3.56111 1.64951 5.24165 1.64951ZM17.7058 4.69221C17.7058 3.01184 16.3429 1.64951 14.6624 1.64951C14.3172 1.64951 14.0374 1.92933 14.0374 2.27451C14.0374 2.61968 14.3172 2.89951 14.6624 2.89951C15.6527 2.89951 16.4558 3.70232 16.4558 4.69221C16.4558 5.68211 15.6527 6.48492 14.6624 6.48492C14.3172 6.48492 14.0374 6.76474 14.0374 7.10992C14.0374 7.4551 14.3172 7.73492 14.6624 7.73492C16.3429 7.73492 17.7058 6.37258 17.7058 4.69221ZM17.0798 9.29582C16.6796 9.20551 16.252 9.14377 15.8172 9.11378C15.4728 9.09003 15.1744 9.34994 15.1506 9.6943C15.1269 10.0387 15.3868 10.3371 15.7312 10.3608C16.1033 10.3865 16.4679 10.4391 16.8225 10.5189C17.3739 10.6271 17.7334 10.8065 17.8226 10.9934C17.8897 11.1346 17.8897 11.3005 17.822 11.4433C17.7339 11.6284 17.3774 11.8069 16.8338 11.9187C16.4957 11.9882 16.278 12.3186 16.3475 12.6567C16.417 12.9948 16.7475 13.2126 17.0856 13.143C17.9841 12.9583 18.6423 12.6288 18.9511 11.9797C19.18 11.497 19.18 10.9372 18.9511 10.4559C18.6401 9.80423 17.9706 9.47022 17.0798 9.29582ZM4.75329 9.6943C4.72954 9.34994 4.43113 9.09003 4.08677 9.11378C3.65194 9.14377 3.2243 9.20551 2.80699 9.29942L2.63495 9.33582C1.84527 9.51625 1.24281 9.84784 0.953629 10.4558C0.72375 10.9368 0.72375 11.4975 0.953871 11.9802C1.26131 12.6286 1.91945 12.9582 2.81832 13.143C3.15643 13.2126 3.48688 12.9948 3.5564 12.6567C3.62593 12.3186 3.4082 11.9882 3.0701 11.9187C2.52669 11.8069 2.17055 11.6286 2.08278 11.4434C2.0144 11.3 2.0144 11.1351 2.08194 10.9938C2.17109 10.8063 2.53023 10.6271 3.06429 10.5225L3.34198 10.4657C3.6188 10.4145 3.89369 10.3801 4.17277 10.3608C4.51713 10.3371 4.77703 10.0387 4.75329 9.6943ZM4.30583 12.3205C4.30583 10.3322 6.36244 9.63295 9.94805 9.63295L10.2021 9.63413C13.6378 9.6664 15.5903 10.3672 15.5903 12.3059C15.5903 14.199 13.724 14.9239 10.4497 14.9886L9.94805 14.9934C6.35422 14.9934 4.30583 14.3065 4.30583 12.3205ZM14.3403 12.306C14.3403 11.3805 12.8565 10.883 9.94807 10.883C7.04248 10.883 5.55585 11.3884 5.55585 12.3205C5.55585 13.246 7.03917 13.7435 9.94807 13.7435C12.8528 13.7435 14.3403 13.2376 14.3403 12.306Z" fill="#777E90"/>
</g>
</svg>
