<svg width="18" height="16" viewBox="0 0 18 16" fill="none" xmlns="http://www.w3.org/2000/svg">
<g id="Swap">
<path id="Swap_2" fill-rule="evenodd" clip-rule="evenodd" d="M5.13225 0.691846C4.88716 0.509287 4.53861 0.529571 4.31651 0.752699L0.918366 4.16659L0.858013 4.23683C0.677034 4.48192 0.698008 4.82909 0.920409 5.05047L0.990647 5.11082C1.23574 5.2918 1.58291 5.27083 1.80429 5.04843L4.1344 2.70708V12.5422L4.1401 12.627C4.18149 12.9321 4.44299 13.1672 4.7594 13.1672C5.10458 13.1672 5.3844 12.8874 5.3844 12.5422V2.70722L7.71466 5.04843L7.78462 5.1091C8.02888 5.29121 8.37614 5.27184 8.59854 5.05047C8.84318 4.80696 8.8441 4.41123 8.60059 4.16659L5.20244 0.752699L5.19819 0.749021C5.17908 0.73017 5.15875 0.712542 5.13734 0.696264L5.13225 0.691846ZM13.6524 3.37058C13.611 3.06552 13.3495 2.83039 13.0331 2.83039C12.6879 2.83039 12.4081 3.11021 12.4081 3.45539V13.2901L10.0778 10.9492L10.0079 10.8885C9.76363 10.7064 9.41637 10.7258 9.19397 10.9471C8.94933 11.1907 8.94841 11.5864 9.19193 11.831L12.5901 15.2449L12.5943 15.2486C12.6135 15.2675 12.6338 15.2851 12.6552 15.3013L12.6603 15.3058C12.9054 15.4883 13.2539 15.468 13.476 15.2449L16.8741 11.831L16.9345 11.7608C17.1155 11.5157 17.0945 11.1685 16.8721 10.9471C16.6275 10.7036 16.2317 10.7046 15.9882 10.9492L13.6581 13.2894V3.45539L13.6524 3.37058Z" fill="#777E90"/>
</g>
</svg>
